<svg width="38" height="38" viewBox="0 0 38 38" fill="none" xmlns="http://www.w3.org/2000/svg">
<path d="M31.3995 6.1005C31.3995 5.82436 31.1756 5.60051 30.8995 5.6005L26.3995 5.60051C26.1234 5.60051 25.8995 5.82436 25.8995 6.10051C25.8995 6.37665 26.1234 6.60051 26.3995 6.60051L30.3995 6.60051L30.3995 10.6005C30.3995 10.8766 30.6234 11.1005 30.8995 11.1005C31.1756 11.1005 31.3995 10.8766 31.3995 10.6005L31.3995 6.1005ZM21.3536 16.3536L31.253 6.45406L30.5459 5.74695L20.6464 15.6464L21.3536 16.3536Z" fill="#909090"/>
<path d="M6.20695 30.8995C6.20695 31.1756 6.43081 31.3995 6.70695 31.3995L11.207 31.3995C11.4831 31.3995 11.707 31.1756 11.707 30.8995C11.707 30.6234 11.4831 30.3995 11.207 30.3995L7.20695 30.3995L7.20695 26.3995C7.20695 26.1234 6.98309 25.8995 6.70695 25.8995C6.43081 25.8995 6.20695 26.1234 6.20695 26.3995L6.20695 30.8995ZM16.2529 20.6464L6.3534 30.5459L7.0605 31.253L16.96 21.3536L16.2529 20.6464Z" fill="#909090"/>
</svg>
