<svg width="38" height="38" viewBox="0 0 38 38" fill="none" xmlns="http://www.w3.org/2000/svg">
<path d="M20.4994 16C20.4994 16.2762 20.7233 16.5 20.9994 16.5H25.4994C25.7756 16.5 25.9994 16.2762 25.9994 16C25.9994 15.7239 25.7756 15.5 25.4994 15.5H21.4994V11.5C21.4994 11.2239 21.2756 11 20.9994 11C20.7233 11 20.4994 11.2239 20.4994 11.5V16ZM30.5454 5.74697L20.6459 15.6465L21.353 16.3536L31.2525 6.45408L30.5454 5.74697Z" fill="#909090"/>
<path d="M17.107 21C17.107 20.7238 16.8832 20.5 16.607 20.5H12.107C11.8309 20.5 11.607 20.7238 11.607 21C11.607 21.2761 11.8309 21.5 12.107 21.5H16.107V25.5C16.107 25.7761 16.3309 26 16.607 26C16.8832 26 17.107 25.7761 17.107 25.5V21ZM7.06107 31.253L16.9606 21.3535L16.2535 20.6464L6.35397 30.5459L7.06107 31.253Z" fill="#909090"/>
</svg>
