<svg width="35" height="36" viewBox="0 0 35 36" fill="none" xmlns="http://www.w3.org/2000/svg">
<path d="M29.5826 8.18829H13.9652C13.5358 6.91305 12.3296 5.9917 10.9114 5.9917C9.49325 5.9917 8.28705 6.91305 7.85769 8.18829H5.41992C4.85363 8.18829 4.39453 8.64739 4.39453 9.21368C4.39453 9.77997 4.85363 10.2391 5.41992 10.2391H7.85775C8.28712 11.5143 9.49332 12.4357 10.9115 12.4357C12.3297 12.4357 13.5359 11.5143 13.9653 10.2391H29.5827C30.149 10.2391 30.6081 9.77997 30.6081 9.21368C30.6081 8.64739 30.149 8.18829 29.5826 8.18829ZM10.9114 10.3849C10.2656 10.3849 9.74023 9.85947 9.74023 9.21368C9.74023 8.56789 10.2656 8.04248 10.9114 8.04248C11.5572 8.04248 12.0826 8.56789 12.0826 9.21368C12.0826 9.85947 11.5572 10.3849 10.9114 10.3849Z" fill="#909090"/>
<path d="M29.5826 16.9749H27.1448C26.7154 15.6997 25.5092 14.7783 24.0911 14.7783C22.6729 14.7783 21.4667 15.6997 21.0374 16.9749H5.41992C4.85363 16.9749 4.39453 17.434 4.39453 18.0003C4.39453 18.5666 4.85363 19.0257 5.41992 19.0257H21.0374C21.4667 20.3009 22.673 21.2223 24.0911 21.2223C25.5092 21.2223 26.7155 20.3009 27.1449 19.0257H29.5827C30.149 19.0257 30.6081 18.5666 30.6081 18.0003C30.6081 17.434 30.149 16.9749 29.5826 16.9749ZM24.0911 19.1715C23.4453 19.1715 22.9199 18.6461 22.9199 18.0003C22.9199 17.3545 23.4453 16.8291 24.0911 16.8291C24.7369 16.8291 25.2623 17.3545 25.2623 18.0003C25.2623 18.6461 24.7369 19.1715 24.0911 19.1715Z" fill="#909090"/>
<path d="M29.5826 25.761H18.3584C17.9291 24.4858 16.7229 23.5645 15.3047 23.5645C13.8865 23.5645 12.6803 24.4858 12.2509 25.761H5.41992C4.85363 25.761 4.39453 26.2201 4.39453 26.7864C4.39453 27.3527 4.85363 27.8118 5.41992 27.8118H12.2509C12.6803 29.0871 13.8865 30.0084 15.3047 30.0084C16.7229 30.0084 17.9291 29.0871 18.3584 27.8118H29.5827C30.149 27.8118 30.6081 27.3527 30.6081 26.7864C30.6081 26.2201 30.149 25.761 29.5826 25.761ZM15.3047 27.9577C14.6589 27.9577 14.1335 27.4323 14.1335 26.7865C14.1335 26.1407 14.6589 25.6153 15.3047 25.6153C15.9505 25.6153 16.4759 26.1406 16.4759 26.7864C16.4759 27.4322 15.9505 27.9577 15.3047 27.9577Z" fill="#909090"/>
</svg>
