<svg width="25" height="25" viewBox="0 0 25 25" fill="none" xmlns="http://www.w3.org/2000/svg">
<path d="M20.5354 12.5C20.0423 12.5 19.6426 12.8998 19.6426 13.3929V22.3213C19.6426 22.8144 19.2428 23.2142 18.7497 23.2142H2.67854C2.18541 23.2142 1.78567 22.8144 1.78567 22.3213V4.46442C1.78567 3.9713 2.18541 3.57156 2.67854 3.57156H13.3927C13.8858 3.57156 14.2855 3.17182 14.2855 2.6787C14.2855 2.18558 13.8858 1.78589 13.3927 1.78589H2.67854C1.19922 1.78589 0 2.98511 0 4.46442V22.3213C0 23.8006 1.19922 24.9999 2.67854 24.9999H18.7498C20.2291 24.9999 21.4283 23.8006 21.4283 22.3213V13.3928C21.4283 12.8998 21.0285 12.5 20.5354 12.5Z" fill="#909090"/>
<path d="M23.9991 1.00134C23.358 0.360169 22.4885 3.15657e-05 21.5818 0.000136196C20.6746 -0.00247956 19.8042 0.358286 19.1649 1.00192L7.40427 12.7615C7.30671 12.8598 7.2331 12.9793 7.1891 13.1106L5.40343 18.4677C5.24758 18.9356 5.50052 19.4411 5.96838 19.5969C6.05915 19.6272 6.1542 19.6426 6.24983 19.6427C6.34568 19.6425 6.44094 19.6272 6.53197 19.5972L11.889 17.8115C12.0206 17.7676 12.1402 17.6936 12.2381 17.5954L23.9987 5.8349C25.3335 4.50023 25.3337 2.33616 23.9991 1.00134ZM22.7362 4.57327L11.1292 16.1803L7.6614 17.3383L8.81584 13.8749L20.4273 2.26795C21.0657 1.63085 22.0997 1.6319 22.7368 2.27025C23.0411 2.57519 23.2126 2.98801 23.2139 3.41883C23.215 3.85194 23.043 4.26754 22.7362 4.57327Z" fill="#909090"/>
</svg>
