<svg width="30" height="30" viewBox="0 0 30 30" fill="none" xmlns="http://www.w3.org/2000/svg">
<path d="M29.6334 27.8662L21.1023 19.335C22.7548 17.2938 23.7498 14.7 23.7498 11.8751C23.7498 5.32765 18.4223 0.000183105 11.8748 0.000183105C5.32741 0.000183105 0 5.32759 0 11.875C0 18.4225 5.32747 23.7499 11.8749 23.7499C14.6999 23.7499 17.2936 22.755 19.3348 21.1025L27.866 29.6336C28.1097 29.8774 28.4297 29.9999 28.7497 29.9999C29.0698 29.9999 29.3898 29.8774 29.6335 29.6336C30.1222 29.1449 30.1222 28.3549 29.6334 27.8662ZM11.8749 21.2499C6.70494 21.2499 2.5 17.045 2.5 11.875C2.5 6.70506 6.70494 2.50012 11.8749 2.50012C17.0449 2.50012 21.2498 6.70506 21.2498 11.875C21.2498 17.045 17.0448 21.2499 11.8749 21.2499Z" fill="black"/>
</svg>
