<svg width="24" height="23" viewBox="0 0 24 23" fill="none" xmlns="http://www.w3.org/2000/svg">
<path d="M22.8233 14.2798L20.8363 13.1814C21.0369 12.1455 21.0369 11.0828 20.8363 10.0469L22.8233 8.94843C23.0519 8.82341 23.1545 8.56443 23.0799 8.32331C22.5621 6.73372 21.6806 5.29594 20.5285 4.09928C20.3512 3.91621 20.062 3.87156 19.8381 3.99658L17.8511 5.09501C17.0162 4.40738 16.0554 3.87602 15.0152 3.52774V1.33536C15.0152 1.08531 14.8333 0.866515 14.5768 0.812934C12.865 0.446792 11.1112 0.464652 9.48333 0.812934C9.22679 0.866515 9.04488 1.08531 9.04488 1.33536V3.53221C8.0094 3.88495 7.04855 4.41631 6.20897 5.09947L4.22663 4.00105C3.99808 3.87602 3.71356 3.91621 3.53631 4.10375C2.38422 5.29594 1.50266 6.73372 0.984924 8.32777C0.90563 8.56889 1.01291 8.82787 1.24146 8.9529L3.22847 10.0513C3.0279 11.0872 3.0279 12.1499 3.22847 13.1859L1.24146 14.2843C1.01291 14.4093 0.910294 14.6683 0.984924 14.9094C1.50266 16.499 2.38422 17.9368 3.53631 19.1334C3.71356 19.3165 4.00274 19.3612 4.22663 19.2361L6.21364 18.1377C7.04855 18.8253 8.0094 19.3567 9.04955 19.705V21.9018C9.04955 22.1519 9.23146 22.3707 9.488 22.4242C11.1998 22.7904 12.9536 22.7725 14.5814 22.4242C14.838 22.3707 15.0199 22.1519 15.0199 21.9018V19.705C16.0554 19.3522 17.0162 18.8209 17.8558 18.1377L19.8428 19.2361C20.0714 19.3612 20.3559 19.321 20.5331 19.1334C21.6852 17.9412 22.5668 16.5035 23.0845 14.9094C23.1545 14.6638 23.0519 14.4048 22.8233 14.2798ZM12.0301 15.1862C9.97309 15.1862 8.29859 13.5833 8.29859 11.6141C8.29859 9.64499 9.97309 8.04201 12.0301 8.04201C14.087 8.04201 15.7615 9.64499 15.7615 11.6141C15.7615 13.5833 14.087 15.1862 12.0301 15.1862Z" fill="#2D3A47"/>
</svg>
