<svg width="23" height="21" viewBox="0 0 23 21" fill="none" xmlns="http://www.w3.org/2000/svg">
<g clip-path="url(#clip0)">
<path d="M19.6665 9.92487V18.2716C19.6509 18.4759 19.6822 18.6809 19.7585 18.8739C19.8348 19.0669 19.9545 19.2438 20.1101 19.3935C20.2656 19.5432 20.4538 19.6625 20.6629 19.7441C20.872 19.8257 21.0975 19.8679 21.3255 19.8679C21.5534 19.8679 21.779 19.8257 21.9881 19.7441C22.1971 19.6625 22.3853 19.5432 22.5409 19.3935C22.6965 19.2438 22.8161 19.0669 22.8924 18.8739C22.9687 18.6809 23.0001 18.4759 22.9845 18.2716V9.92487H19.6665Z" fill="#2D3A47"/>
<path d="M8.0576 4.41882H5.27832V6.91582H8.0576V4.41882Z" fill="#2D3A47"/>
<path d="M18.2924 18.2715V0H0.984375V18.3206C0.984372 19.03 1.2975 19.7105 1.8551 20.2128C2.41269 20.715 3.16923 20.9981 3.95883 21H21.3215C20.5174 20.9981 19.747 20.7099 19.1791 20.1984C18.6113 19.6869 18.2924 18.994 18.2924 18.2715ZM3.90418 3.18437H9.42369V8.14329H3.90418V3.18437ZM15.5443 16.8968H3.83391V15.6623H15.5443V16.8968ZM15.5443 14.0912H3.83391V12.8357H15.5443V14.0912ZM15.5443 11.2856H3.83391V10.009H15.5443V11.2856Z" fill="#2D3A47"/>
</g>
<defs>
<clipPath id="clip0">
<rect width="22" height="21" fill="white" transform="translate(0.984375)"/>
</clipPath>
</defs>
</svg>
