<svg width="24" height="23" viewBox="0 0 24 23" fill="none" xmlns="http://www.w3.org/2000/svg">
<path d="M15.8275 2.03513L5.67218 7.27454L1.6377 5.28489L11.6087 0.31076C11.7226 0.255031 11.8475 0.226074 11.974 0.226074C12.1006 0.226074 12.2255 0.255031 12.3393 0.31076L15.8275 2.03513Z" fill="#2D3A47"/>
<path d="M22.3237 5.27156L11.9841 10.4314L8.11412 8.50806L7.55469 8.22288L17.7232 2.98346L18.2826 3.26864L22.3237 5.27156Z" fill="#2D3A47"/>
<path d="M11.1613 11.9171V22.7739L1.25612 17.5677C1.11755 17.495 1.00137 17.3855 0.920155 17.2511C0.838942 17.1167 0.795802 16.9624 0.79541 16.805L0.79541 6.76385L4.98785 8.84636V12.5073C4.97753 12.6247 4.99155 12.7429 5.02904 12.8545C5.06652 12.966 5.12663 13.0685 5.20556 13.1554C5.28449 13.2423 5.3805 13.3117 5.48749 13.3592C5.59447 13.4067 5.7101 13.4312 5.827 13.4312C5.9439 13.4312 6.05952 13.4067 6.16651 13.3592C6.2735 13.3117 6.36951 13.2423 6.44844 13.1554C6.52736 13.0685 6.58748 12.966 6.62496 12.8545C6.66244 12.7429 6.67647 12.6247 6.66614 12.5073V9.68865L7.22558 9.96057L11.1613 11.9171Z" fill="#2D3A47"/>
<path d="M23.1729 6.77051L12.8398 11.9104V22.7607L23.1729 17.3223V6.77051Z" fill="#2D3A47"/>
</svg>
