<svg width="26" height="27" viewBox="0 0 26 27" fill="none" xmlns="http://www.w3.org/2000/svg">
<path fill-rule="evenodd" clip-rule="evenodd" d="M15.7584 8.45062C15.9722 8.45062 16.1812 8.51403 16.359 8.63283C16.5368 8.75162 16.6754 8.92048 16.7572 9.11803C16.8391 9.31558 16.8605 9.53296 16.8187 9.74268C16.777 9.9524 16.6741 10.145 16.5229 10.2962C16.3717 10.4474 16.179 10.5504 15.9693 10.5921C15.7596 10.6338 15.5422 10.6124 15.3447 10.5306C15.1471 10.4488 14.9782 10.3102 14.8595 10.1324C14.7407 9.95462 14.6772 9.74559 14.6772 9.53176C14.6772 9.24503 14.7912 8.97003 14.9939 8.76728C15.1967 8.56453 15.4716 8.45062 15.7584 8.45062Z" fill="#2D3A47"/>
<path fill-rule="evenodd" clip-rule="evenodd" d="M11.4491 15.0425C11.6923 15.2852 11.9561 15.5062 12.2375 15.7032V14.3818C12.2377 14.1507 12.2843 13.9219 12.3746 13.7091C12.4649 13.4963 12.597 13.3038 12.763 13.143C13.0912 12.8198 13.5337 12.639 13.9943 12.64H17.5381C17.9987 12.642 18.4398 12.8264 18.7649 13.1528C19.0899 13.4793 19.2724 13.9212 19.2724 14.3818V15.7032C19.5538 15.5062 19.8176 15.2852 20.0607 15.0425C20.9122 14.1909 21.492 13.106 21.7269 11.9249C21.9618 10.7438 21.8412 9.51954 21.3803 8.40698C20.9194 7.29443 20.139 6.34351 19.1377 5.67449C18.1364 5.00547 16.9592 4.64838 15.7549 4.64838C14.5507 4.64838 13.3735 5.00547 12.3722 5.67449C11.3709 6.34351 10.5905 7.29443 10.1296 8.40698C9.6687 9.51954 9.54808 10.7438 9.78296 11.9249C10.0178 13.106 10.5977 14.1909 11.4491 15.0425ZM13.1835 9.53172C13.1805 9.02176 13.329 8.5224 13.6102 8.09694C13.8913 7.67148 14.2925 7.33907 14.7627 7.14186C15.233 6.94464 15.7513 6.8915 16.2518 6.98916C16.7523 7.08682 17.2126 7.3309 17.5743 7.69044C17.9359 8.04998 18.1827 8.50881 18.2833 9.00876C18.3838 9.50871 18.3337 10.0273 18.1393 10.4987C17.9448 10.9701 17.6148 11.3732 17.1909 11.6569C16.7671 11.9405 16.2686 12.0919 15.7587 12.0919C15.0789 12.09 14.4273 11.8201 13.9452 11.3408C13.4631 10.8615 13.1894 10.2115 13.1835 9.53172Z" fill="#2D3A47"/>
<path fill-rule="evenodd" clip-rule="evenodd" d="M1.27572 20.1555L5.57775 15.8459C6.67079 18.0353 8.44715 19.809 10.6381 20.8988L6.33605 25.2158C5.65608 25.8416 4.76053 26.1803 3.83662 26.1612C2.91271 26.142 2.03196 25.7665 1.37852 25.113C0.725077 24.4596 0.349519 23.5788 0.33036 22.6549C0.311202 21.731 0.649927 20.8355 1.27572 20.1555Z" fill="#2D3A47"/>
<path fill-rule="evenodd" clip-rule="evenodd" d="M8.75372 17.7379C10.3739 19.3548 12.5045 20.3599 14.7825 20.5822C17.0606 20.8045 19.3453 20.2302 21.2475 18.9571C23.1496 17.684 24.5517 15.7909 25.2147 13.6001C25.8778 11.4093 25.7608 9.05648 24.8839 6.94225C24.0069 4.82802 22.4241 3.08318 20.4051 2.00493C18.3861 0.926668 16.0557 0.581678 13.8109 1.02871C11.5661 1.47575 9.54569 2.68717 8.09378 4.45663C6.64187 6.22609 5.84827 8.44417 5.84816 10.7331C5.84603 12.0347 6.1017 13.3238 6.60039 14.5261C7.09909 15.7284 7.83094 16.82 8.75372 17.7379ZM10.3979 16.0937C9.16505 14.8463 8.40267 13.2101 8.24063 11.4638C8.07859 9.7174 8.52691 7.96887 9.50925 6.51593C10.4916 5.06299 11.9472 3.99549 13.6282 3.49521C15.3092 2.99494 17.1116 3.09283 18.7286 3.77221C20.3455 4.45159 21.6769 5.67046 22.4961 7.22124C23.3153 8.77202 23.5717 10.5588 23.2214 12.2774C22.8712 13.9959 21.9361 15.5399 20.5754 16.6464C19.2147 17.753 17.5124 18.3536 15.7586 18.3461C14.7608 18.3422 13.7735 18.1412 12.8536 17.7547C11.9336 17.3682 11.0991 16.8037 10.3979 16.0937Z" fill="#2D3A47"/>
<path fill-rule="evenodd" clip-rule="evenodd" d="M17.7854 14.3819C17.7854 14.3154 17.7596 14.2516 17.7133 14.204C17.6671 14.1563 17.604 14.1285 17.5376 14.1266H13.9939C13.9248 14.1265 13.8582 14.1529 13.8079 14.2004C13.7576 14.2479 13.7275 14.3128 13.7236 14.3819V16.4766C15.0384 16.9372 16.4707 16.9372 17.7854 16.4766V14.3819Z" fill="#2D3A47"/>
</svg>
