<svg width="30" height="18" viewBox="0 0 30 18" fill="none" xmlns="http://www.w3.org/2000/svg">
<path fill-rule="evenodd" clip-rule="evenodd" d="M13.6946 8.17388C10.9235 9.00158 8.84717 12.4779 8.84717 16.633C8.84717 16.7903 8.84717 16.9475 8.84717 17.1048H21.1215C21.1215 16.9475 21.1215 16.7903 21.1215 16.633C21.1215 12.4945 19.0452 9.00986 16.2741 8.17388C17.0643 7.90695 17.7545 7.39106 18.2484 6.69815C18.7423 6.00525 19.0153 5.16987 19.0292 4.30852C19.0292 3.20214 18.6052 2.14107 17.8503 1.35874C17.0955 0.57641 16.0718 0.136902 15.0043 0.136902C13.9368 0.136902 12.9131 0.57641 12.1583 1.35874C11.4035 2.14107 10.9794 3.20214 10.9794 4.30852C10.9905 5.16479 11.2576 5.99641 11.744 6.68872C12.2303 7.38103 12.9118 7.89993 13.6946 8.17388Z" fill="#2D3A47"/>
<path fill-rule="evenodd" clip-rule="evenodd" d="M4.74242 8.24835C2.41054 8.9519 0.661621 11.8737 0.661621 15.3749C0.661621 15.5073 0.661621 15.6397 0.661621 15.7722H8.05658C8.16036 13.9924 8.66644 12.2629 9.53397 10.7232C9.5739 10.6487 9.62182 10.5742 9.66973 10.4997C9.03486 9.43726 8.05952 8.64026 6.91459 8.24835C7.58054 8.02783 8.1619 7.59418 8.57514 7.00972C8.98839 6.42526 9.21224 5.72008 9.21454 4.99549C9.204 4.07493 8.84159 3.19629 8.20681 2.55234C7.57202 1.90838 6.71671 1.55169 5.82851 1.56052C4.94031 1.55169 4.08499 1.90838 3.45021 2.55234C2.81543 3.19629 2.45301 4.07493 2.44248 4.99549C2.44478 5.72008 2.66863 6.42526 3.08187 7.00972C3.49512 7.59418 4.07648 8.02783 4.74242 8.24835Z" fill="#2D3A47"/>
<path fill-rule="evenodd" clip-rule="evenodd" d="M23.0623 8.2484C21.9173 8.64032 20.942 9.43732 20.3071 10.4998C20.355 10.5742 20.403 10.6487 20.4429 10.7232C21.3104 12.2629 21.8165 13.9925 21.9203 15.7722H29.3073C29.3073 15.6398 29.3073 15.5073 29.3073 15.3749C29.3073 11.8737 27.5583 8.95195 25.2265 8.2484C25.8924 8.02788 26.4738 7.59423 26.887 7.00978C27.3002 6.42532 27.5241 5.72013 27.5264 4.99554C27.5264 4.06477 27.1697 3.17213 26.5347 2.51398C25.8996 1.85583 25.0384 1.48608 24.1404 1.48608C23.2423 1.48608 22.3811 1.85583 21.7461 2.51398C21.1111 3.17213 20.7543 4.06477 20.7543 4.99554C20.7572 5.72116 20.9822 6.42712 21.397 7.01171C21.8117 7.59629 22.3948 8.02932 23.0623 8.2484Z" fill="#2D3A47"/>
</svg>
