<svg width="24" height="23" viewBox="0 0 24 23" fill="none" xmlns="http://www.w3.org/2000/svg">
<path d="M22.623 16.4001H21.003V13.0901C21.003 12.8753 20.9177 12.6692 20.7658 12.5173C20.6139 12.3654 20.4079 12.2801 20.193 12.2801H12.853V6.61009H16.933C17.1479 6.61009 17.3539 6.52475 17.5058 6.37284C17.6577 6.22094 17.743 6.01491 17.743 5.80009V0.910088C17.7431 0.694332 17.658 0.487263 17.5064 0.333767C17.3548 0.180272 17.1488 0.0927191 16.933 0.0900879L7.14305 0.0900879C6.92731 0.0927191 6.7213 0.180272 6.56967 0.333767C6.41805 0.487263 6.33303 0.694332 6.33305 0.910088V5.80009C6.33305 6.01491 6.41839 6.22094 6.57029 6.37284C6.7222 6.52475 6.92822 6.61009 7.14305 6.61009H11.223V12.3201H3.88305C3.66822 12.3201 3.46219 12.4054 3.31029 12.5573C3.15839 12.7092 3.07305 12.9153 3.07305 13.1301V16.4001H1.44305C1.22729 16.4001 1.02022 16.4851 0.866726 16.6367C0.713231 16.7883 0.625678 16.9943 0.623047 17.2101L0.623047 22.0901C0.623047 22.3076 0.709439 22.5161 0.863219 22.6699C1.017 22.8237 1.22557 22.9101 1.44305 22.9101H6.33305C6.54879 22.9075 6.7548 22.8199 6.90642 22.6664C7.05804 22.5129 7.14306 22.3058 7.14305 22.0901V17.2101C7.14305 16.9953 7.05771 16.7892 6.9058 16.6373C6.7539 16.4854 6.54787 16.4001 6.33305 16.4001H4.70305V13.9501H11.223V16.4001H9.62305C9.40729 16.4001 9.20022 16.4851 9.04673 16.6367C8.89323 16.7883 8.80568 16.9943 8.80305 17.2101V22.0901C8.80305 22.3076 8.88944 22.5161 9.04322 22.6699C9.197 22.8237 9.40557 22.9101 9.62305 22.9101H14.513C14.7288 22.9075 14.9348 22.8199 15.0864 22.6664C15.238 22.5129 15.3231 22.3058 15.323 22.0901V17.2101C15.323 16.9953 15.2377 16.7892 15.0858 16.6373C14.9339 16.4854 14.7279 16.4001 14.513 16.4001H12.853V13.9501H19.373V16.4001H17.743C17.5282 16.4001 17.3222 16.4854 17.1703 16.6373C17.0184 16.7892 16.933 16.9953 16.933 17.2101V22.0901C16.933 22.3058 17.0181 22.5129 17.1697 22.6664C17.3213 22.8199 17.5273 22.9075 17.743 22.9101H22.623C22.8405 22.9101 23.0491 22.8237 23.2029 22.6699C23.3567 22.5161 23.443 22.3076 23.443 22.0901V17.2101C23.4404 16.9943 23.3529 16.7883 23.1994 16.6367C23.0459 16.4851 22.8388 16.4001 22.623 16.4001Z" fill="#2D3A47"/>
</svg>
