<svg width="23" height="21" viewBox="0 0 23 21" fill="none" xmlns="http://www.w3.org/2000/svg">
<g clip-path="url(#clip0)">
<path d="M19.0299 0H4.93886C3.89007 0 2.88423 0.397694 2.14262 1.10559C1.40101 1.8135 0.984375 2.77361 0.984375 3.77474L0.984375 17.2253C0.984375 18.2264 1.40101 19.1865 2.14262 19.8944C2.88423 20.6023 3.89007 21 4.93886 21H19.0299C20.0787 21 21.0845 20.6023 21.8261 19.8944C22.5677 19.1865 22.9844 18.2264 22.9844 17.2253V3.77474C22.9844 2.77361 22.5677 1.8135 21.8261 1.10559C21.0845 0.397694 20.0787 0 19.0299 0V0ZM19.5741 16.3872H12.5286C12.3917 16.7702 12.1327 17.1028 11.7879 17.3382C11.4431 17.5737 11.0297 17.7003 10.6057 17.7003C10.1818 17.7003 9.76844 17.5737 9.42364 17.3382C9.07883 17.1028 8.81983 16.7702 8.68292 16.3872H4.39467C4.22339 16.3872 4.05914 16.3223 3.93803 16.2067C3.81692 16.0911 3.74889 15.9343 3.74889 15.7708C3.74889 15.6073 3.81692 15.4505 3.93803 15.3349C4.05914 15.2193 4.22339 15.1544 4.39467 15.1544H8.68292C8.81983 14.7713 9.07883 14.4388 9.42364 14.2033C9.76844 13.9679 10.1818 13.8413 10.6057 13.8413C11.0297 13.8413 11.4431 13.9679 11.7879 14.2033C12.1327 14.4388 12.3917 14.7713 12.5286 15.1544H19.5741C19.7454 15.1544 19.9096 15.2193 20.0307 15.3349C20.1518 15.4505 20.2199 15.6073 20.2199 15.7708C20.2199 15.9343 20.1518 16.0911 20.0307 16.2067C19.9096 16.3223 19.7454 16.3872 19.5741 16.3872ZM19.5741 11.1164H18.0503C17.9134 11.4994 17.6544 11.832 17.3096 12.0674C16.9648 12.3029 16.5515 12.4295 16.1275 12.4295C15.7036 12.4295 15.2902 12.3029 14.9454 12.0674C14.6006 11.832 14.3416 11.4994 14.2047 11.1164H4.39467C4.22339 11.1164 4.05914 11.0515 3.93803 10.9359C3.81692 10.8203 3.74889 10.6635 3.74889 10.5C3.74889 10.3365 3.81692 10.1797 3.93803 10.0641C4.05914 9.94852 4.22339 9.88358 4.39467 9.88358H14.2047C14.3416 9.50056 14.6006 9.16803 14.9454 8.93256C15.2902 8.69709 15.7036 8.57049 16.1275 8.57049C16.5515 8.57049 16.9648 8.69709 17.3096 8.93256C17.6544 9.16803 17.9134 9.50056 18.0503 9.88358H19.5741C19.7454 9.88358 19.9096 9.94852 20.0307 10.0641C20.1518 10.1797 20.2199 10.3365 20.2199 10.5C20.2199 10.6635 20.1518 10.8203 20.0307 10.9359C19.9096 11.0515 19.7454 11.1164 19.5741 11.1164ZM19.5741 5.84565H9.76406C9.62716 6.22866 9.36816 6.56119 9.02335 6.79666C8.67854 7.03213 8.2652 7.15873 7.84124 7.15873C7.41727 7.15873 7.00393 7.03213 6.65912 6.79666C6.31431 6.56119 6.05532 6.22866 5.91841 5.84565H4.39467C4.22339 5.84565 4.05914 5.7807 3.93803 5.6651C3.81692 5.5495 3.74889 5.39271 3.74889 5.22922C3.74889 5.06574 3.81692 4.90895 3.93803 4.79334C4.05914 4.67774 4.22339 4.6128 4.39467 4.6128H5.91841C6.05532 4.22979 6.31431 3.89725 6.65912 3.66178C7.00393 3.42632 7.41727 3.29971 7.84124 3.29971C8.2652 3.29971 8.67854 3.42632 9.02335 3.66178C9.36816 3.89725 9.62716 4.22979 9.76406 4.6128H19.5741C19.7454 4.6128 19.9096 4.67774 20.0307 4.79334C20.1518 4.90895 20.2199 5.06574 20.2199 5.22922C20.2199 5.39271 20.1518 5.5495 20.0307 5.6651C19.9096 5.7807 19.7454 5.84565 19.5741 5.84565Z" fill="#2D3A47"/>
<path d="M10.606 15.0712C10.4135 15.0712 10.229 15.1442 10.0929 15.2741C9.95682 15.404 9.88037 15.5801 9.88037 15.7638C9.88037 15.9475 9.95682 16.1237 10.0929 16.2536C10.229 16.3835 10.4135 16.4565 10.606 16.4565C10.7984 16.4565 10.983 16.3835 11.119 16.2536C11.2551 16.1237 11.3316 15.9475 11.3316 15.7638C11.3316 15.5801 11.2551 15.404 11.119 15.2741C10.983 15.1442 10.7984 15.0712 10.606 15.0712Z" fill="#2D3A47"/>
<path d="M7.84132 4.52966C7.64888 4.52966 7.46432 4.60263 7.32824 4.73252C7.19217 4.86241 7.11572 5.03858 7.11572 5.22228C7.11572 5.40597 7.19217 5.58214 7.32824 5.71203C7.46432 5.84192 7.64888 5.91489 7.84132 5.91489C8.03376 5.91489 8.21831 5.84192 8.35439 5.71203C8.49046 5.58214 8.56691 5.40597 8.56691 5.22228C8.56691 5.03858 8.49046 4.86241 8.35439 4.73252C8.21831 4.60263 8.03376 4.52966 7.84132 4.52966Z" fill="#2D3A47"/>
<path d="M16.1274 9.80048C15.935 9.80048 15.7505 9.87345 15.6144 10.0033C15.4783 10.1332 15.4019 10.3094 15.4019 10.4931C15.4019 10.6768 15.4783 10.853 15.6144 10.9828C15.7505 11.1127 15.935 11.1857 16.1274 11.1857C16.3199 11.1857 16.5044 11.1127 16.6405 10.9828C16.7766 10.853 16.853 10.6768 16.853 10.4931C16.853 10.3094 16.7766 10.1332 16.6405 10.0033C16.5044 9.87345 16.3199 9.80048 16.1274 9.80048Z" fill="#2D3A47"/>
</g>
<defs>
<clipPath id="clip0">
<rect width="22" height="21" fill="white" transform="translate(0.984375)"/>
</clipPath>
</defs>
</svg>
