<svg width="24" height="31" viewBox="0 0 24 31" fill="none" xmlns="http://www.w3.org/2000/svg">
<path fill-rule="evenodd" clip-rule="evenodd" d="M16.0091 24.7031C16.0373 24.8167 16.0396 24.9347 16.016 25.0493C15.9925 25.1639 15.9434 25.2725 15.8722 25.3682C15.8009 25.4638 15.709 25.5442 15.6025 25.6043C15.4959 25.6643 15.3771 25.7026 15.2538 25.7166C13.047 26.0713 10.7921 26.0713 8.58528 25.7166C8.46289 25.7013 8.34526 25.6621 8.23997 25.6015C8.13468 25.5409 8.04405 25.4603 7.97392 25.3648C7.9038 25.2693 7.85572 25.1611 7.83278 25.0472C7.80984 24.9332 7.81256 24.816 7.84075 24.7031C7.89716 24.4864 8.04179 24.2993 8.24357 24.1818C8.44534 24.0642 8.68815 24.0258 8.91979 24.0746C10.9301 24.399 12.9845 24.399 14.9948 24.0746C15.2164 24.0451 15.4418 24.0927 15.6286 24.2085C15.8154 24.3242 15.9507 24.5001 16.0091 24.7031Z" fill="#2D3A47"/>
<path fill-rule="evenodd" clip-rule="evenodd" d="M15.8799 26.5681C15.9013 26.6783 15.8986 26.7914 15.8717 26.9006C15.8449 27.0098 15.7945 27.1126 15.7238 27.2028C15.653 27.293 15.5633 27.3687 15.4603 27.4251C15.3572 27.4815 15.243 27.5176 15.1245 27.5309C12.9223 27.8958 10.6691 27.8958 8.46687 27.5309C8.34844 27.5176 8.23418 27.4815 8.13113 27.4251C8.02808 27.3687 7.93841 27.293 7.86765 27.2028C7.79689 27.1126 7.74654 27.0098 7.71969 26.9006C7.69284 26.7914 7.69007 26.6783 7.71154 26.5681C7.76795 26.3514 7.91259 26.1643 8.11436 26.0467C8.31614 25.9292 8.55894 25.8908 8.79058 25.9396C10.8009 26.264 12.8553 26.264 14.8656 25.9396C15.0875 25.9078 15.314 25.9545 15.5014 26.0706C15.6888 26.1867 15.8237 26.3639 15.8799 26.5681Z" fill="#2D3A47"/>
<path fill-rule="evenodd" clip-rule="evenodd" d="M15.8799 28.443C15.908 28.5567 15.9104 28.6746 15.8868 28.7892C15.8632 28.9038 15.8142 29.0125 15.743 29.1081C15.6717 29.2037 15.5798 29.2841 15.4733 29.3442C15.3667 29.4042 15.2479 29.4425 15.1245 29.4566C12.9214 29.8113 10.67 29.8113 8.46686 29.4566C8.3435 29.4425 8.22468 29.4042 8.11813 29.3442C8.01157 29.2841 7.91968 29.2037 7.84842 29.1081C7.77717 29.0125 7.72815 28.9038 7.70456 28.7892C7.68098 28.6746 7.68335 28.5567 7.71153 28.443C7.76794 28.2264 7.91257 28.0392 8.11435 27.9217C8.31612 27.8042 8.55893 27.7657 8.79057 27.8146C10.8008 28.1389 12.8553 28.1389 14.8656 27.8146C15.0875 27.7828 15.314 27.8294 15.5014 27.9455C15.6888 28.0616 15.8236 28.2389 15.8799 28.443Z" fill="#2D3A47"/>
<path fill-rule="evenodd" clip-rule="evenodd" d="M14.1315 29.7709C14.1646 29.9131 14.1383 30.0618 14.058 30.1863C13.9776 30.3108 13.8494 30.4016 13.6999 30.4398C12.4434 30.6832 11.1473 30.6832 9.89089 30.4398C9.74134 30.4016 9.61314 30.3108 9.53281 30.1863C9.45248 30.0618 9.42615 29.9131 9.45927 29.7709C9.46727 29.7054 9.48904 29.6422 9.52331 29.5847C9.55758 29.5273 9.60366 29.4768 9.65889 29.4363C9.71412 29.3957 9.77738 29.3659 9.84499 29.3485C9.91261 29.3311 9.98323 29.3265 10.0527 29.335C11.1988 29.5579 12.3812 29.5579 13.5273 29.335C13.5976 29.3251 13.6693 29.3285 13.7382 29.3452C13.8071 29.3619 13.8717 29.3915 13.9281 29.4322C13.9845 29.4729 14.0316 29.5239 14.0665 29.582C14.1015 29.6402 14.1236 29.7045 14.1315 29.7709Z" fill="#2D3A47"/>
<path fill-rule="evenodd" clip-rule="evenodd" d="M11.9843 0.377441C9.06239 0.377441 6.26018 1.46773 4.19409 3.40845C2.128 5.34918 0.967285 7.98137 0.967285 10.726C0.967285 14.9627 5.84455 19.6352 7.54943 23.1928C7.90551 23.9327 16.0091 24.2064 16.4191 23.1928C17.4982 20.6691 23.0013 14.9627 23.0013 10.726C23.0013 7.98137 21.8406 5.34918 19.7745 3.40845C17.7084 1.46773 14.9062 0.377441 11.9843 0.377441V0.377441ZM19.6455 9.49955C19.202 7.61869 18.009 5.96858 16.3112 4.88782C16.1349 4.78491 16.0033 4.62641 15.9401 4.4407C15.8768 4.25499 15.886 4.05419 15.9659 3.87425C16.0103 3.78315 16.0744 3.70175 16.1542 3.63526C16.2339 3.56878 16.3276 3.51866 16.4292 3.48813C16.5307 3.4576 16.638 3.44733 16.744 3.45797C16.8501 3.4686 16.9526 3.49992 17.045 3.54991C18.0478 4.1007 18.9251 4.83181 19.6269 5.7014C20.3286 6.57099 20.8409 7.562 21.1345 8.61774C21.2226 8.87918 21.2187 9.16028 21.1235 9.41948C21.0283 9.67868 20.8468 9.90221 20.6058 10.057C20.1742 10.2192 19.775 9.93538 19.6455 9.49955Z" fill="#2D3A47"/>
</svg>
