<svg width="26" height="19" viewBox="0 0 26 19" fill="none" xmlns="http://www.w3.org/2000/svg">
<path fill-rule="evenodd" clip-rule="evenodd" d="M0.32959 9.72406C0.32959 8.32109 1.07243 6.98783 2.43184 5.93342C3.56343 5.11483 4.82869 4.58347 6.14605 4.3736C5.73923 5.20632 5.52657 6.15006 5.52949 7.10983C5.56069 8.04053 5.76741 8.95154 6.13478 9.77727C6.50214 10.603 7.02101 11.3229 7.65402 11.8852C8.86826 13.0445 10.2786 13.8881 11.7917 14.36C11.2515 14.5966 10.6947 14.7774 10.1277 14.9002L9.86769 14.9525L9.70427 15.1878C8.46549 16.8894 6.85162 18.1586 5.03921 18.8565C5.60138 17.9723 5.9434 16.9225 6.02719 15.8239L6.09405 15.0745L5.45521 14.909C2.32041 14.0811 0.32959 11.8852 0.32959 9.72406Z" fill="#2D3A47"/>
<path fill-rule="evenodd" clip-rule="evenodd" d="M25.6381 7.10989C25.6381 5.36706 24.6947 3.62424 22.949 2.2997C20.8465 0.823345 18.431 0.0741823 15.9812 0.138596C13.522 0.0809141 11.099 0.839091 8.99101 2.32584C7.22305 3.66781 6.27221 5.36706 6.27221 7.10989C6.22021 9.98555 8.96873 12.8786 13.1509 13.8023L13.4778 13.8808L13.6858 14.1683C15.2635 16.3417 17.3189 17.9662 19.6285 18.8652C18.9007 17.7251 18.4559 16.3709 18.3434 14.9526L18.2617 13.994L19.0862 13.7849C23.0902 12.7741 25.6827 9.9594 25.6381 7.16217V7.10989ZM10.1721 4.49565H21.9908C22.0402 4.49449 22.0893 4.50491 22.1352 4.52628C22.1811 4.54766 22.2229 4.57957 22.2582 4.62015C22.2935 4.66072 22.3215 4.70915 22.3406 4.76258C22.3598 4.81602 22.3696 4.8734 22.3696 4.93136C22.3696 5.04923 22.3297 5.16227 22.2587 5.24561C22.1876 5.32896 22.0912 5.37578 21.9908 5.37578H10.1721C10.0729 5.3735 9.97849 5.32567 9.90904 5.24257C9.83959 5.15947 9.80069 5.04773 9.80071 4.93136C9.80071 4.8158 9.83984 4.70498 9.9095 4.62327C9.97915 4.54156 10.0736 4.49565 10.1721 4.49565ZM10.1721 6.72647H21.9908C22.0457 6.7135 22.1025 6.71502 22.1569 6.73091C22.2113 6.7468 22.2621 6.77666 22.3055 6.81835C22.3489 6.86003 22.3838 6.9125 22.4078 6.97196C22.4318 7.03142 22.4443 7.09638 22.4443 7.16217C22.4443 7.22796 22.4318 7.29293 22.4078 7.35239C22.3838 7.41185 22.3489 7.46431 22.3055 7.506C22.2621 7.54768 22.2113 7.57755 22.1569 7.59344C22.1025 7.60933 22.0457 7.61084 21.9908 7.59788H10.1721C10.0863 7.57765 10.0091 7.52319 9.95369 7.44377C9.89824 7.36434 9.86794 7.26484 9.86794 7.16217C9.86794 7.05951 9.89824 6.96001 9.95369 6.88058C10.0091 6.80115 10.0863 6.7467 10.1721 6.72647ZM10.1721 8.95728H21.9908C22.0457 8.94432 22.1025 8.94583 22.1569 8.96172C22.2113 8.97761 22.2621 9.00748 22.3055 9.04916C22.3489 9.09085 22.3838 9.14331 22.4078 9.20277C22.4318 9.26223 22.4443 9.3272 22.4443 9.39299C22.4443 9.45877 22.4318 9.52374 22.4078 9.5832C22.3838 9.64266 22.3489 9.69512 22.3055 9.73681C22.2621 9.77849 22.2113 9.80836 22.1569 9.82425C22.1025 9.84014 22.0457 9.84166 21.9908 9.82869H10.1721C10.0863 9.80846 10.0091 9.75401 9.95369 9.67458C9.89824 9.59515 9.86794 9.49565 9.86794 9.39299C9.86794 9.29032 9.89824 9.19082 9.95369 9.11139C10.0091 9.03197 10.0863 8.97751 10.1721 8.95728Z" fill="#2D3A47"/>
</svg>
