<svg width="26" height="25" viewBox="0 0 26 25" fill="none" xmlns="http://www.w3.org/2000/svg">
<g clip-path="url(#clip0)">
<path d="M8.30485 10.9773L6.70485 14.4647C6.66543 14.5515 6.56639 14.6069 6.45774 14.6069H5.63851C5.52985 14.6069 5.43081 14.5506 5.39235 14.4647L4.63274 12.8004C4.5587 12.6361 4.49139 12.4792 4.42793 12.3232C4.35774 12.4949 4.28562 12.6546 4.21351 12.8078L3.41254 14.4693C3.37216 14.5533 3.27408 14.6069 3.16735 14.6069H2.34812C2.23562 14.6069 2.13754 14.5487 2.09908 14.461L0.601968 10.9727C0.573122 10.9044 0.58466 10.8287 0.63466 10.7687C0.68466 10.7087 0.764468 10.6737 0.851006 10.6737H1.77312C1.88947 10.6737 1.99139 10.7373 2.02601 10.8297L2.6837 12.602C2.73851 12.7515 2.78947 12.8927 2.83658 13.0275C2.89428 12.8927 2.95678 12.7506 3.02312 12.6001L3.83274 10.8167C3.87216 10.7309 3.97024 10.6737 4.07889 10.6737H4.84043C4.95101 10.6737 5.04908 10.7318 5.08851 10.8186L5.85581 12.5632C5.92504 12.7201 5.98658 12.8669 6.04331 13.0053C6.09043 12.8743 6.14524 12.7321 6.20774 12.5761L6.91639 10.8241C6.95293 10.7337 7.05389 10.6727 7.16639 10.6727H8.05678C8.14428 10.6727 8.22504 10.7087 8.27504 10.7687C8.32601 10.8315 8.33562 10.9081 8.30485 10.9773ZM16.8837 10.9773L15.2837 14.4647C15.2443 14.5515 15.1452 14.6069 15.0375 14.6069H14.2164C14.1077 14.6069 14.0097 14.5506 13.9702 14.4647L13.2116 12.8004C13.1366 12.6361 13.0693 12.4792 13.0058 12.3232C12.9356 12.4949 12.8635 12.6546 12.7914 12.8078L11.9904 14.4693C11.95 14.5533 11.8529 14.6069 11.7452 14.6069H10.925C10.8135 14.6069 10.7145 14.5487 10.676 14.461L9.17889 10.9727C9.15004 10.9044 9.16158 10.8287 9.21158 10.7687C9.26158 10.7097 9.34235 10.6737 9.42793 10.6737H10.35C10.4664 10.6737 10.5683 10.7373 10.6029 10.8297L11.2597 12.602C11.3145 12.7515 11.3654 12.8927 11.4145 13.0275C11.4712 12.8927 11.5327 12.7506 11.5991 12.6001L12.4097 10.8167C12.4481 10.7309 12.5462 10.6737 12.6558 10.6737H13.4174C13.5279 10.6737 13.627 10.7318 13.6654 10.8186L14.4337 12.5632C14.502 12.7201 14.5635 12.8669 14.6193 13.0053C14.6683 12.8743 14.7212 12.7321 14.7847 12.5761L15.4933 10.8241C15.5299 10.7337 15.6318 10.6727 15.7443 10.6727H16.6347C16.7231 10.6727 16.8049 10.7087 16.8529 10.7687C16.9039 10.8315 16.9154 10.9081 16.8837 10.9773ZM25.4616 10.9773L23.8625 14.4647C23.8222 14.5515 23.7241 14.6069 23.6154 14.6069H22.7952C22.6866 14.6069 22.5875 14.5506 22.5491 14.4647L21.7904 12.8004C21.7154 12.6361 21.6481 12.4792 21.5847 12.3232C21.5145 12.4949 21.4414 12.6546 21.3693 12.8078L20.5683 14.4693C20.5279 14.5533 20.4299 14.6069 20.3231 14.6069H19.5039C19.3914 14.6069 19.2924 14.5487 19.2539 14.461L17.7568 10.9727C17.7289 10.9044 17.7385 10.8287 17.7885 10.7687C17.8385 10.7087 17.9193 10.6737 18.0058 10.6737H18.9289C19.0452 10.6737 19.1472 10.7373 19.1808 10.8297L19.8385 12.602C19.8933 12.7515 19.9443 12.8927 19.9924 13.0275C20.0491 12.8927 20.1106 12.7506 20.177 12.6001L20.9875 10.8167C21.027 10.7309 21.125 10.6737 21.2347 10.6737H21.9952C22.1058 10.6737 22.2049 10.7318 22.2433 10.8186L23.0106 12.5632C23.0799 12.7201 23.1424 12.8669 23.1991 13.0053C23.2462 12.8743 23.301 12.7321 23.3635 12.5761L24.0731 10.8241C24.1087 10.7337 24.2097 10.6727 24.3231 10.6727H25.2135C25.302 10.6727 25.3827 10.7087 25.4318 10.7687C25.4808 10.8315 25.4924 10.9081 25.4616 10.9773Z" fill="#2D3A47"/>
<path d="M3.13853 8.92628C3.41064 8.26351 3.75103 7.63305 4.15488 7.04598C4.21449 7.05705 4.27026 7.08013 4.33276 7.08013H6.14045C5.94911 7.66536 5.79911 8.28844 5.6693 8.92628H7.64526C7.7943 8.28105 7.96738 7.65613 8.18565 7.08013H17.7876C18.0058 7.65613 18.1789 8.28105 18.328 8.92628H20.3039C20.1741 8.28844 20.0241 7.66536 19.8328 7.08013H21.6405C21.703 7.08013 21.7587 7.05705 21.8193 7.04598C22.2212 7.63305 22.5626 8.26351 22.8347 8.92628H24.8741C23.2481 4.11151 18.5366 0.618591 12.9866 0.618591C7.43661 0.618591 2.72507 4.11151 1.09814 8.92628H3.13853ZM20.2231 5.23398H19.0808C18.8328 4.73275 18.5597 4.26475 18.2626 3.83182C18.9741 4.2269 19.6299 4.69767 20.2231 5.23398ZM12.9866 2.46475C14.478 2.46475 15.8549 3.52998 16.8924 5.23398H9.08084C10.1183 3.52998 11.4953 2.46475 12.9866 2.46475ZM7.70872 3.83182C7.41257 4.26475 7.13949 4.73275 6.89141 5.23398H5.75007C6.34334 4.69767 6.99911 4.2269 7.70872 3.83182Z" fill="#2D3A47"/>
<path d="M22.8347 16.3109C22.5626 16.9746 22.2212 17.6032 21.8183 18.1912C21.7587 18.1801 21.703 18.1571 21.6405 18.1571H19.8318C20.0231 17.5718 20.1731 16.9488 20.303 16.3109H18.327C18.1789 16.9561 18.0049 17.582 17.7866 18.1571H8.18565C7.96738 17.582 7.7943 16.9561 7.64526 16.3109H5.67026C5.80007 16.9488 5.95007 17.5718 6.14141 18.1571H4.33276C4.27026 18.1571 4.21449 18.1801 4.15488 18.1912C3.75199 17.6032 3.41064 16.9746 3.13853 16.3109H1.09814C2.72507 21.1257 7.43661 24.6186 12.9866 24.6186C18.5366 24.6186 23.2481 21.1257 24.8741 16.3109H22.8347ZM5.75007 20.0032H6.89238C7.14045 20.5045 7.41353 20.9734 7.70968 21.4054C6.99911 21.0103 6.34334 20.5395 5.75007 20.0032ZM12.9866 22.7725C11.4953 22.7725 10.1183 21.7072 9.08084 20.0032H16.8914C15.8549 21.7072 14.478 22.7725 12.9866 22.7725ZM18.2635 21.4054C18.5606 20.9734 18.8337 20.5045 19.0818 20.0032H20.2241C19.6299 20.5395 18.9741 21.0103 18.2635 21.4054Z" fill="#2D3A47"/>
</g>
<defs>
<clipPath id="clip0">
<rect width="25" height="24" fill="white" transform="translate(0.532715 0.618591)"/>
</clipPath>
</defs>
</svg>
