<svg width="65" height="53" viewBox="0 0 65 53" fill="none" xmlns="http://www.w3.org/2000/svg">
<path d="M54.1567 17.8931C51.1526 5.92555 39.0158 -1.34071 27.0482 1.66343C17.6959 4.01118 10.905 12.0943 10.2053 21.7113C3.56472 22.8064 -0.930829 29.0774 0.164276 35.7179C1.13777 41.6215 6.25317 45.9449 12.2363 45.9212H22.3915V41.8591H12.2363C7.74953 41.8591 4.11221 38.2218 4.11221 33.735C4.11221 29.2482 7.74953 25.6109 12.2363 25.6109C13.3581 25.6109 14.2674 24.7016 14.2674 23.5799C14.2572 13.4845 22.433 5.29237 32.5283 5.28234C41.2673 5.27359 48.7901 11.4517 50.4806 20.0256C50.6475 20.8817 51.3422 21.5356 52.2069 21.6504C57.7595 22.4411 61.6196 27.5833 60.829 33.1357C60.1191 38.1217 55.862 41.834 50.8258 41.8591H42.7017V45.9212H50.8258C58.6778 45.8974 65.0237 39.5129 64.9999 31.661C64.9801 25.1248 60.5062 19.4442 54.1567 17.8931Z" fill="#392DFF"/>
<path d="M31.1049 26.2L22.9808 34.3241L25.8446 37.1879L30.5159 32.5368V52.0143H34.578V32.5368L39.229 37.1879L42.0928 34.3241L33.9687 26.2C33.1765 25.4125 31.8972 25.4125 31.1049 26.2Z" fill="#392DFF"/>
</svg>
