<svg width="89" height="19" viewBox="0 0 89 19" fill="none" xmlns="http://www.w3.org/2000/svg">
<g clip-path="url(#clip0)">
<path d="M13.7057 0.469849L6.88608 18.4698L0.0664062 0.469849H5.50903L6.95165 5.81571L8.52542 0.469849H13.7057Z" fill="#252525"/>
<path d="M20.1321 4.80066C21.7714 4.80066 23.1484 5.40968 24.3288 6.6954C25.5091 7.98111 26.0993 9.46983 26.0993 11.2292C26.0993 13.0563 25.5091 14.545 24.3288 15.8307C23.1484 17.1164 21.7058 17.7255 20.0665 17.7255C18.4271 17.7255 16.9845 17.1164 15.8042 15.8307C14.6239 14.545 14.0337 13.0563 14.0337 11.2292C14.0337 9.40216 14.6239 7.84577 15.8042 6.62773C16.9845 5.40968 18.3616 4.80066 20.1321 4.80066ZM20.0009 9.40216C19.5419 9.40216 19.1484 9.60517 18.8206 9.94352C18.4927 10.2819 18.3616 10.7555 18.3616 11.2969C18.3616 11.8383 18.4927 12.2443 18.8206 12.6503C19.1484 13.0563 19.5419 13.1916 20.0009 13.1916C20.4599 13.1916 20.8534 12.9886 21.1812 12.6503C21.5091 12.3119 21.6403 11.8383 21.6403 11.2969C21.6403 10.7555 21.5091 10.3495 21.1812 9.94352C20.8534 9.5375 20.4599 9.40216 20.0009 9.40216Z" fill="#252525"/>
<path d="M33.5744 4.80066C35.2138 4.80066 36.5908 5.40968 37.7712 6.6954C38.9515 7.98111 39.5416 9.46983 39.5416 11.2292C39.5416 13.0563 38.9515 14.545 37.7712 15.8307C36.5908 17.1164 35.1482 17.7255 33.5089 17.7255C31.8695 17.7255 30.4269 17.1164 29.2466 15.8307C28.0662 14.545 27.4761 13.0563 27.4761 11.2292C27.4761 9.40216 28.0662 7.84577 29.2466 6.62773C30.4269 5.40968 31.8039 4.80066 33.5744 4.80066ZM33.4433 9.40216C32.9843 9.40216 32.5908 9.60517 32.263 9.94352C31.9351 10.2819 31.8039 10.7555 31.8039 11.2969C31.8039 11.8383 31.9351 12.2443 32.263 12.6503C32.5908 13.0563 32.9843 13.1916 33.4433 13.1916C33.9023 13.1916 34.2957 12.9886 34.6236 12.6503C34.9515 12.3119 35.0826 11.8383 35.0826 11.2969C35.0826 10.7555 34.9515 10.3495 34.6236 9.94352C34.2957 9.5375 33.9023 9.40216 33.4433 9.40216Z" fill="#252525"/>
<path d="M44.7224 11.9059C45.4437 11.9059 46.0994 12.1766 46.6896 12.7856C47.2142 13.3946 47.4765 14.0713 47.4765 14.8833C47.4765 15.6954 47.2142 16.372 46.6896 16.9811C46.165 17.5901 45.5092 17.8608 44.7224 17.8608C43.9355 17.8608 43.2797 17.5901 42.7551 17.0487C42.2306 16.5074 41.9683 15.763 41.9683 14.951C41.9683 14.139 42.2306 13.3946 42.7551 12.8533C43.3453 12.2442 43.9355 11.9059 44.7224 11.9059Z" fill="#EC6446"/>
<path d="M62.2961 0.469849L55.4764 18.4698L48.6567 0.469849H54.0994L55.542 5.81571L57.1158 0.469849H62.2961Z" fill="#252525"/>
<path d="M68.7224 4.80066C70.3617 4.80066 71.7388 5.40968 72.9191 6.6954C74.0994 7.98111 74.6896 9.46983 74.6896 11.2292C74.6896 13.0563 74.0994 14.545 72.9191 15.8307C71.7388 17.1164 70.2962 17.7255 68.6568 17.7255C67.0175 17.7255 65.5748 17.1164 64.3945 15.8307C63.2142 14.545 62.624 13.0563 62.624 11.2292C62.624 9.40216 63.2142 7.84577 64.3945 6.62773C65.5748 5.40968 66.9519 4.80066 68.7224 4.80066ZM68.5912 9.40216C68.1322 9.40216 67.7388 9.60517 67.4109 9.94352C67.083 10.2819 66.9519 10.7555 66.9519 11.2969C66.9519 11.8383 67.083 12.2443 67.4109 12.6503C67.7388 13.0563 68.1322 13.1916 68.5912 13.1916C69.0503 13.1916 69.4437 12.9886 69.7716 12.6503C70.0994 12.3119 70.2306 11.8383 70.2306 11.2969C70.2306 10.7555 70.0994 10.3495 69.7716 9.94352C69.4437 9.5375 69.0503 9.40216 68.5912 9.40216Z" fill="#252525"/>
<path d="M82.1648 4.80066C83.8041 4.80066 85.1812 5.40968 86.3615 6.6954C87.5418 7.98111 88.132 9.46983 88.132 11.2292C88.132 13.0563 87.5418 14.545 86.3615 15.8307C85.1812 17.1164 83.7385 17.7255 82.0992 17.7255C80.4598 17.7255 79.0172 17.1164 77.8369 15.8307C76.6566 14.545 76.0664 13.0563 76.0664 11.2292C76.0664 9.40216 76.6566 7.84577 77.8369 6.62773C79.0172 5.40968 80.3943 4.80066 82.1648 4.80066ZM82.0336 9.40216C81.5746 9.40216 81.1812 9.60517 80.8533 9.94352C80.5254 10.2819 80.3943 10.7555 80.3943 11.2969C80.3943 11.8383 80.5254 12.2443 80.8533 12.6503C81.1812 13.0563 81.5746 13.1916 82.0336 13.1916C82.4926 13.1916 82.8861 12.9886 83.2139 12.6503C83.5418 12.3119 83.673 11.8383 83.673 11.2969C83.673 10.7555 83.5418 10.3495 83.2139 9.94352C82.8861 9.5375 82.4926 9.40216 82.0336 9.40216Z" fill="#252525"/>
</g>
<defs>
<clipPath id="clip0">
<rect width="88" height="18" fill="white" transform="translate(0.0664062 0.469849)"/>
</clipPath>
</defs>
</svg>
