<svg width="88" height="18" viewBox="0 0 88 18" fill="none" xmlns="http://www.w3.org/2000/svg">
<g clip-path="url(#clip0)">
<path d="M13.6404 0L6.82071 18L0.0010376 0H5.44366L6.88628 5.34586L8.46005 0H13.6404Z" fill="#252525"/>
<path d="M20.0666 4.33105C21.706 4.33105 23.083 4.94008 24.2633 6.22579C25.4437 7.51151 26.0338 9.00023 26.0338 10.7596C26.0338 12.5867 25.4437 14.0754 24.2633 15.3611C23.083 16.6468 21.6404 17.2559 20.001 17.2559C18.3617 17.2559 16.9191 16.6468 15.7388 15.3611C14.5584 14.0754 13.9683 12.5867 13.9683 10.7596C13.9683 8.93256 14.5584 7.37617 15.7388 6.15812C16.9191 4.94008 18.2961 4.33105 20.0666 4.33105ZM19.9355 8.93256C19.4765 8.93256 19.083 9.13557 18.7551 9.47391C18.4273 9.81226 18.2961 10.2859 18.2961 10.8273C18.2961 11.3686 18.4273 11.7747 18.7551 12.1807C19.083 12.5867 19.4765 12.722 19.9355 12.722C20.3945 12.722 20.7879 12.519 21.1158 12.1807C21.4437 11.8423 21.5748 11.3686 21.5748 10.8273C21.5748 10.2859 21.4437 9.87993 21.1158 9.47391C20.7879 9.0679 20.3945 8.93256 19.9355 8.93256Z" fill="#252525"/>
<path d="M33.5092 4.33105C35.1486 4.33105 36.5256 4.94008 37.706 6.22579C38.8863 7.51151 39.4765 9.00023 39.4765 10.7596C39.4765 12.5867 38.8863 14.0754 37.706 15.3611C36.5256 16.6468 35.083 17.2559 33.4437 17.2559C31.8043 17.2559 30.3617 16.6468 29.1814 15.3611C28.0011 14.0754 27.4109 12.5867 27.4109 10.7596C27.4109 8.93256 28.0011 7.37617 29.1814 6.15812C30.3617 4.94008 31.7388 4.33105 33.5092 4.33105ZM33.3781 8.93256C32.9191 8.93256 32.5256 9.13557 32.1978 9.47391C31.8699 9.81226 31.7388 10.2859 31.7388 10.8273C31.7388 11.3686 31.8699 11.7747 32.1978 12.1807C32.5256 12.5867 32.9191 12.722 33.3781 12.722C33.8371 12.722 34.2306 12.519 34.5584 12.1807C34.8863 11.8423 35.0174 11.3686 35.0174 10.8273C35.0174 10.2859 34.8863 9.87993 34.5584 9.47391C34.2306 9.0679 33.8371 8.93256 33.3781 8.93256Z" fill="#252525"/>
<path d="M44.6568 11.436C45.3781 11.436 46.0339 11.7067 46.624 12.3157C47.1486 12.9248 47.4109 13.6014 47.4109 14.4135C47.4109 15.2255 47.1486 15.9022 46.624 16.5112C46.0994 17.1202 45.4437 17.3909 44.6568 17.3909C43.8699 17.3909 43.2142 17.1202 42.6896 16.5789C42.165 16.0375 41.9027 15.2932 41.9027 14.4811C41.9027 13.6691 42.165 12.9248 42.6896 12.3834C43.2798 11.7744 43.8699 11.436 44.6568 11.436Z" fill="#EC6446"/>
<path d="M62.2305 0L55.4109 18L48.5912 0H54.0338L55.4764 5.34586L57.0502 0H62.2305Z" fill="#252525"/>
<path d="M68.6568 4.33105C70.2961 4.33105 71.6732 4.94008 72.8535 6.22579C74.0338 7.51151 74.624 9.00023 74.624 10.7596C74.624 12.5867 74.0338 14.0754 72.8535 15.3611C71.6732 16.6468 70.2305 17.2559 68.5912 17.2559C66.9518 17.2559 65.5092 16.6468 64.3289 15.3611C63.1486 14.0754 62.5584 12.5867 62.5584 10.7596C62.5584 8.93256 63.1486 7.37617 64.3289 6.15812C65.5092 4.94008 66.8863 4.33105 68.6568 4.33105ZM68.5256 8.93256C68.0666 8.93256 67.6732 9.13557 67.3453 9.47391C67.0174 9.81226 66.8863 10.2859 66.8863 10.8273C66.8863 11.3686 67.0174 11.7747 67.3453 12.1807C67.6732 12.5867 68.0666 12.722 68.5256 12.722C68.9846 12.722 69.3781 12.519 69.706 12.1807C70.0338 11.8423 70.165 11.3686 70.165 10.8273C70.165 10.2859 70.0338 9.87993 69.706 9.47391C69.3781 9.0679 68.9846 8.93256 68.5256 8.93256Z" fill="#252525"/>
<path d="M82.0994 4.33105C83.7387 4.33105 85.1158 4.94008 86.2961 6.22579C87.4764 7.51151 88.0666 9.00023 88.0666 10.7596C88.0666 12.5867 87.4764 14.0754 86.2961 15.3611C85.1158 16.6468 83.6732 17.2559 82.0338 17.2559C80.3945 17.2559 78.9519 16.6468 77.7715 15.3611C76.5912 14.0754 76.001 12.5867 76.001 10.7596C76.001 8.93256 76.5912 7.37617 77.7715 6.15812C78.9519 4.94008 80.3289 4.33105 82.0994 4.33105ZM81.9682 8.93256C81.5092 8.93256 81.1158 9.13557 80.7879 9.47391C80.4601 9.81226 80.3289 10.2859 80.3289 10.8273C80.3289 11.3686 80.4601 11.7747 80.7879 12.1807C81.1158 12.5867 81.5092 12.722 81.9682 12.722C82.4273 12.722 82.8207 12.519 83.1486 12.1807C83.4764 11.8423 83.6076 11.3686 83.6076 10.8273C83.6076 10.2859 83.4764 9.87993 83.1486 9.47391C82.8207 9.0679 82.4273 8.93256 81.9682 8.93256Z" fill="#252525"/>
</g>
<defs>
<clipPath id="clip0">
<rect width="88" height="18" fill="white" transform="translate(0.0010376)"/>
</clipPath>
</defs>
</svg>
